<svg width="182" height="133" viewBox="0 0 182 133" fill="none" xmlns="http://www.w3.org/2000/svg">
<path d="M5.16964 39.0118C5.16964 40.484 4.06186 41.5881 2.58482 41.5881C1.10778 41.5881 0 40.484 0 39.0118C0 37.5397 1.10778 36.4355 2.58482 36.4355C4.06186 36.4355 5.16964 37.6623 5.16964 39.0118Z" fill="#FFCF2D"/>
<path d="M27.2024 39.0118C27.2024 40.484 26.0946 41.5881 24.6175 41.5881C23.1405 41.5881 22.0327 40.484 22.0327 39.0118C22.0327 37.5397 23.1405 36.4355 24.6175 36.4355C25.9715 36.4355 27.2024 37.6623 27.2024 39.0118Z" fill="#FFCF2D"/>
<path d="M49.1115 39.0118C49.1115 40.484 48.0037 41.5881 46.5267 41.5881C45.0497 41.5881 43.9419 40.484 43.9419 39.0118C43.9419 37.5397 45.0497 36.4355 46.5267 36.4355C48.0037 36.4355 49.1115 37.6623 49.1115 39.0118Z" fill="#FFCF2D"/>
<path d="M71.1438 39.0118C71.1438 40.484 70.036 41.5881 68.5589 41.5881C67.0819 41.5881 65.9741 40.484 65.9741 39.0118C65.9741 37.5397 67.0819 36.4355 68.5589 36.4355C70.036 36.4355 71.1438 37.6623 71.1438 39.0118Z" fill="#FFCF2D"/>
<path d="M93.1765 39.0118C93.1765 40.484 92.0687 41.5881 90.5917 41.5881C89.1146 41.5881 88.0068 40.484 88.0068 39.0118C88.0068 37.5397 89.1146 36.4355 90.5917 36.4355C91.9456 36.4355 93.1765 37.6623 93.1765 39.0118Z" fill="#FFCF2D"/>
<path d="M115.209 39.0118C115.209 40.484 114.101 41.5881 112.624 41.5881C111.147 41.5881 110.04 40.484 110.04 39.0118C110.04 37.5397 111.147 36.4355 112.624 36.4355C114.101 36.4355 115.209 37.6623 115.209 39.0118Z" fill="#FFCF2D"/>
<path d="M137.118 39.0118C137.118 40.484 136.011 41.5881 134.534 41.5881C133.057 41.5881 131.949 40.484 131.949 39.0118C131.949 37.5397 133.057 36.4355 134.534 36.4355C136.011 36.4355 137.118 37.6623 137.118 39.0118Z" fill="#FFCF2D"/>
<path d="M159.151 39.0118C159.151 40.484 158.043 41.5881 156.566 41.5881C155.089 41.5881 153.981 40.484 153.981 39.0118C153.981 37.5397 155.089 36.4355 156.566 36.4355C158.043 36.4355 159.151 37.6623 159.151 39.0118Z" fill="#FFCF2D"/>
<path d="M181.184 39.0118C181.184 40.484 180.076 41.5881 178.599 41.5881C177.122 41.5881 176.014 40.484 176.014 39.0118C176.014 37.5397 177.122 36.4355 178.599 36.4355C179.953 36.4355 181.184 37.6623 181.184 39.0118Z" fill="#FFCF2D"/>
<path d="M5.16964 57.2911C5.16964 58.7633 4.06186 59.8674 2.58482 59.8674C1.10778 59.8674 0 58.7633 0 57.2911C0 55.819 1.10778 54.7148 2.58482 54.7148C4.06186 54.7148 5.16964 55.819 5.16964 57.2911Z" fill="#FFCF2D"/>
<path d="M27.2024 57.2911C27.2024 58.7633 26.0946 59.8674 24.6175 59.8674C23.1405 59.8674 22.0327 58.7633 22.0327 57.2911C22.0327 55.819 23.1405 54.7148 24.6175 54.7148C25.9715 54.7148 27.2024 55.819 27.2024 57.2911Z" fill="#FFCF2D"/>
<path d="M49.1115 57.2911C49.1115 58.7633 48.0038 59.8674 46.5267 59.8674C45.0497 59.8674 43.9419 58.7633 43.9419 57.2911C43.9419 55.819 45.0497 54.7148 46.5267 54.7148C48.0038 54.7148 49.1115 55.819 49.1115 57.2911Z" fill="#FFCF2D"/>
<path d="M71.1438 57.2911C71.1438 58.7633 70.036 59.8674 68.5589 59.8674C67.0819 59.8674 65.9741 58.7633 65.9741 57.2911C65.9741 55.819 67.0819 54.7148 68.5589 54.7148C70.036 54.7148 71.1438 55.819 71.1438 57.2911Z" fill="#FFCF2D"/>
<path d="M93.1765 57.2911C93.1765 58.7633 92.0687 59.8674 90.5917 59.8674C89.1146 59.8674 88.0068 58.7633 88.0068 57.2911C88.0068 55.819 89.1146 54.7148 90.5917 54.7148C91.9456 54.7148 93.1765 55.819 93.1765 57.2911Z" fill="#FFCF2D"/>
<path d="M115.209 57.2911C115.209 58.7633 114.101 59.8674 112.624 59.8674C111.147 59.8674 110.04 58.7633 110.04 57.2911C110.04 55.819 111.147 54.7148 112.624 54.7148C114.101 54.7148 115.209 55.819 115.209 57.2911Z" fill="#FFCF2D"/>
<path d="M137.118 57.2911C137.118 58.7633 136.011 59.8674 134.534 59.8674C133.057 59.8674 131.949 58.7633 131.949 57.2911C131.949 55.819 133.057 54.7148 134.534 54.7148C136.011 54.7148 137.118 55.819 137.118 57.2911Z" fill="#FFCF2D"/>
<path d="M159.151 57.2911C159.151 58.7633 158.043 59.8674 156.566 59.8674C155.089 59.8674 153.981 58.7633 153.981 57.2911C153.981 55.819 155.089 54.7148 156.566 54.7148C158.043 54.7148 159.151 55.819 159.151 57.2911Z" fill="#FFCF2D"/>
<path d="M181.184 57.2911C181.184 58.7633 180.076 59.8674 178.599 59.8674C177.122 59.8674 176.014 58.7633 176.014 57.2911C176.014 55.819 177.122 54.7148 178.599 54.7148C179.953 54.7148 181.184 55.819 181.184 57.2911Z" fill="#FFCF2D"/>
<path d="M5.16964 2.57626C5.16964 4.04841 4.06186 5.15252 2.58482 5.15252C1.10778 5.15252 0 4.04841 0 2.57626C0 1.10411 1.10778 0 2.58482 0C4.06186 0 5.16964 1.10411 5.16964 2.57626Z" fill="#FFCF2D"/>
<path d="M27.2024 2.57626C27.2024 4.04841 26.0946 5.15252 24.6175 5.15252C23.1405 5.15252 22.0327 4.04841 22.0327 2.57626C22.0327 1.10411 23.1405 0 24.6175 0C25.9715 0 27.2024 1.10411 27.2024 2.57626Z" fill="#FFCF2D"/>
<path d="M49.1115 2.57626C49.1115 4.04841 48.0038 5.15252 46.5267 5.15252C45.0497 5.15252 43.9419 4.04841 43.9419 2.57626C43.9419 1.10411 45.1728 0 46.5267 0C48.0038 0 49.1115 1.10411 49.1115 2.57626Z" fill="#FFCF2D"/>
<path d="M71.1438 2.57626C71.1438 4.04841 70.036 5.15252 68.5589 5.15252C67.0819 5.15252 65.9741 4.04841 65.9741 2.57626C65.9741 1.10411 67.205 0 68.5589 0C69.9129 0 71.1438 1.10411 71.1438 2.57626Z" fill="#FFCF2D"/>
<path d="M93.1765 2.57626C93.1765 4.04841 92.0687 5.15252 90.5917 5.15252C89.1146 5.15252 88.0068 4.04841 88.0068 2.57626C88.0068 1.10411 89.1146 0 90.5917 0C91.9456 0 93.1765 1.10411 93.1765 2.57626Z" fill="#FFCF2D"/>
<path d="M115.209 2.57626C115.209 4.04841 114.101 5.15252 112.624 5.15252C111.147 5.15252 110.04 4.04841 110.04 2.57626C110.04 1.10411 111.147 0 112.624 0C114.101 0 115.209 1.10411 115.209 2.57626Z" fill="#FFCF2D"/>
<path d="M137.118 2.57626C137.118 4.04841 136.011 5.15252 134.534 5.15252C133.057 5.15252 131.949 4.04841 131.949 2.57626C131.949 1.10411 133.057 0 134.534 0C136.011 0 137.118 1.10411 137.118 2.57626Z" fill="#FFCF2D"/>
<path d="M159.151 2.57626C159.151 4.04841 158.043 5.15252 156.566 5.15252C155.089 5.15252 153.981 4.04841 153.981 2.57626C153.981 1.10411 155.089 0 156.566 0C158.043 0 159.151 1.10411 159.151 2.57626Z" fill="#FFCF2D"/>
<path d="M181.184 2.57626C181.184 4.04841 180.076 5.15252 178.599 5.15252C177.122 5.15252 176.014 4.04841 176.014 2.57626C176.014 1.10411 177.122 0 178.599 0C179.953 0 181.184 1.10411 181.184 2.57626Z" fill="#FFCF2D"/>
<path d="M5.16964 20.8556C5.16964 22.3277 4.06186 23.4318 2.58482 23.4318C1.10778 23.4318 0 22.205 0 20.8556C0 19.3834 1.10778 18.2793 2.58482 18.2793C4.06186 18.2793 5.16964 19.3834 5.16964 20.8556Z" fill="#FFCF2D"/>
<path d="M27.2024 20.8556C27.2024 22.3277 26.0946 23.4318 24.6175 23.4318C23.1405 23.4318 22.0327 22.3277 22.0327 20.8556C22.0327 19.3834 23.1405 18.2793 24.6175 18.2793C25.9715 18.2793 27.2024 19.3834 27.2024 20.8556Z" fill="#FFCF2D"/>
<path d="M49.1115 20.8556C49.1115 22.3277 48.0038 23.4318 46.5267 23.4318C45.0497 23.4318 43.9419 22.3277 43.9419 20.8556C43.9419 19.3834 45.0497 18.2793 46.5267 18.2793C48.0038 18.2793 49.1115 19.3834 49.1115 20.8556Z" fill="#FFCF2D"/>
<path d="M71.1438 20.8556C71.1438 22.3277 70.036 23.4318 68.5589 23.4318C67.0819 23.4318 65.9741 22.3277 65.9741 20.8556C65.9741 19.3834 67.0819 18.2793 68.5589 18.2793C70.036 18.2793 71.1438 19.3834 71.1438 20.8556Z" fill="#FFCF2D"/>
<path d="M93.1765 20.8556C93.1765 22.3277 92.0687 23.4318 90.5917 23.4318C89.1146 23.4318 88.0068 22.3277 88.0068 20.8556C88.0068 19.3834 89.1146 18.2793 90.5917 18.2793C91.9456 18.2793 93.1765 19.3834 93.1765 20.8556Z" fill="#FFCF2D"/>
<path d="M115.209 20.8556C115.209 22.3277 114.101 23.4318 112.624 23.4318C111.147 23.4318 110.04 22.3277 110.04 20.8556C110.04 19.3834 111.147 18.2793 112.624 18.2793C114.101 18.2793 115.209 19.3834 115.209 20.8556Z" fill="#FFCF2D"/>
<path d="M137.118 20.8556C137.118 22.3277 136.011 23.4318 134.534 23.4318C133.057 23.4318 131.949 22.3277 131.949 20.8556C131.949 19.3834 133.057 18.2793 134.534 18.2793C136.011 18.2793 137.118 19.3834 137.118 20.8556Z" fill="#FFCF2D"/>
<path d="M159.151 20.8556C159.151 22.3277 158.043 23.4318 156.566 23.4318C155.089 23.4318 153.981 22.3277 153.981 20.8556C153.981 19.3834 155.089 18.2793 156.566 18.2793C158.043 18.2793 159.151 19.3834 159.151 20.8556Z" fill="#FFCF2D"/>
<path d="M181.184 20.8556C181.184 22.3277 180.076 23.4318 178.599 23.4318C177.122 23.4318 176.014 22.3277 176.014 20.8556C176.014 19.3834 177.122 18.2793 178.599 18.2793C179.953 18.2793 181.184 19.3834 181.184 20.8556Z" fill="#FFCF2D"/>
<path d="M5.16964 75.4474C5.16964 76.9195 4.06186 78.0236 2.58482 78.0236C1.10778 78.0236 0 76.9195 0 75.4474C0 73.9752 1.10778 72.8711 2.58482 72.8711C4.06186 72.8711 5.16964 74.0979 5.16964 75.4474Z" fill="#FFCF2D"/>
<path d="M27.2024 75.4473C27.2024 76.9195 26.0946 78.0236 24.6175 78.0236C23.1405 78.0236 22.0327 76.9195 22.0327 75.4473C22.0327 73.9752 23.1405 72.8711 24.6175 72.8711C25.9715 72.8711 27.2024 74.0979 27.2024 75.4473Z" fill="#FFCF2D"/>
<path d="M49.1115 75.4474C49.1115 76.9195 48.0038 78.0236 46.5267 78.0236C45.0497 78.0236 43.9419 76.9195 43.9419 75.4474C43.9419 73.9752 45.0497 72.8711 46.5267 72.8711C48.0038 72.8711 49.1115 74.0979 49.1115 75.4474Z" fill="#FFCF2D"/>
<path d="M71.1438 75.4473C71.1438 76.9195 70.036 78.0236 68.5589 78.0236C67.0819 78.0236 65.9741 76.9195 65.9741 75.4473C65.9741 73.9752 67.0819 72.8711 68.5589 72.8711C70.036 72.8711 71.1438 74.0979 71.1438 75.4473Z" fill="#FFCF2D"/>
<path d="M93.1765 75.4474C93.1765 76.9195 92.0687 78.0236 90.5917 78.0236C89.1146 78.0236 88.0068 76.9195 88.0068 75.4474C88.0068 73.9752 89.1146 72.8711 90.5917 72.8711C91.9456 72.8711 93.1765 74.0979 93.1765 75.4474Z" fill="#FFCF2D"/>
<path d="M115.209 75.4474C115.209 76.9195 114.101 78.0236 112.624 78.0236C111.147 78.0236 110.04 76.9195 110.04 75.4474C110.04 73.9752 111.147 72.8711 112.624 72.8711C114.101 72.8711 115.209 74.0979 115.209 75.4474Z" fill="#FFCF2D"/>
<path d="M137.118 75.4474C137.118 76.9195 136.011 78.0236 134.534 78.0236C133.057 78.0236 131.949 76.9195 131.949 75.4474C131.949 73.9752 133.057 72.8711 134.534 72.8711C136.011 72.8711 137.118 74.0979 137.118 75.4474Z" fill="#FFCF2D"/>
<path d="M159.151 75.4474C159.151 76.9195 158.043 78.0236 156.566 78.0236C155.089 78.0236 153.981 76.9195 153.981 75.4474C153.981 73.9752 155.089 72.8711 156.566 72.8711C158.043 72.8711 159.151 74.0979 159.151 75.4474Z" fill="#FFCF2D"/>
<path d="M181.184 75.4473C181.184 76.9195 180.076 78.0236 178.599 78.0236C177.122 78.0236 176.014 76.9195 176.014 75.4473C176.014 73.9752 177.122 72.8711 178.599 72.8711C179.953 72.8711 181.184 74.0979 181.184 75.4473Z" fill="#FFCF2D"/>
<path d="M5.16964 93.7266C5.16964 95.1988 4.06186 96.3029 2.58482 96.3029C1.10778 96.3029 0 95.1988 0 93.7266C0 92.2545 1.10778 91.1504 2.58482 91.1504C4.06186 91.1504 5.16964 92.2545 5.16964 93.7266Z" fill="#FFCF2D"/>
<path d="M27.2024 93.7266C27.2024 95.1988 26.0946 96.3029 24.6175 96.3029C23.1405 96.3029 22.0327 95.1988 22.0327 93.7266C22.0327 92.2545 23.1405 91.1504 24.6175 91.1504C25.9715 91.1504 27.2024 92.2545 27.2024 93.7266Z" fill="#FFCF2D"/>
<path d="M49.1115 93.7266C49.1115 95.1988 48.0038 96.3029 46.5267 96.3029C45.0497 96.3029 43.9419 95.1988 43.9419 93.7266C43.9419 92.2545 45.0497 91.1504 46.5267 91.1504C48.0038 91.1504 49.1115 92.2545 49.1115 93.7266Z" fill="#FFCF2D"/>
<path d="M68.5589 96.3029C69.9865 96.3029 71.1438 95.1495 71.1438 93.7266C71.1438 92.3038 69.9865 91.1504 68.5589 91.1504C67.1314 91.1504 65.9741 92.3038 65.9741 93.7266C65.9741 95.1495 67.1314 96.3029 68.5589 96.3029Z" fill="#FFCF2D"/>
<path d="M93.1765 93.7266C93.1765 95.1988 92.0687 96.3029 90.5917 96.3029C89.1146 96.3029 88.0068 95.1988 88.0068 93.7266C88.0068 92.2545 89.1146 91.1504 90.5917 91.1504C91.9456 91.1504 93.1765 92.2545 93.1765 93.7266Z" fill="#FFCF2D"/>
<path d="M115.209 93.7266C115.209 95.1988 114.101 96.3029 112.624 96.3029C111.147 96.3029 110.04 95.1988 110.04 93.7266C110.04 92.2545 111.147 91.1504 112.624 91.1504C114.101 91.1504 115.209 92.2545 115.209 93.7266Z" fill="#FFCF2D"/>
<path d="M137.118 93.7266C137.118 95.1988 136.011 96.3029 134.534 96.3029C133.057 96.3029 131.949 95.1988 131.949 93.7266C131.949 92.2545 133.057 91.1504 134.534 91.1504C136.011 91.1504 137.118 92.2545 137.118 93.7266Z" fill="#FFCF2D"/>
<path d="M156.566 96.3029C157.994 96.3029 159.151 95.1495 159.151 93.7266C159.151 92.3038 157.994 91.1504 156.566 91.1504C155.139 91.1504 153.981 92.3038 153.981 93.7266C153.981 95.1495 155.139 96.3029 156.566 96.3029Z" fill="#FFCF2D"/>
<path d="M181.184 93.7266C181.184 95.1988 180.076 96.3029 178.599 96.3029C177.122 96.3029 176.014 95.1988 176.014 93.7266C176.014 92.2545 177.122 91.1504 178.599 91.1504C179.953 91.1504 181.184 92.2545 181.184 93.7266Z" fill="#FFCF2D"/>
<path d="M5.16964 112.006C5.16964 113.478 4.06186 114.582 2.58482 114.582C1.10778 114.582 0 113.478 0 112.006C0 110.534 1.10778 109.43 2.58482 109.43C4.06186 109.43 5.16964 110.534 5.16964 112.006Z" fill="#FFCF2D"/>
<path d="M27.2024 112.006C27.2024 113.478 26.0946 114.582 24.6175 114.582C23.1405 114.582 22.0327 113.478 22.0327 112.006C22.0327 110.534 23.1405 109.43 24.6175 109.43C25.9715 109.43 27.2024 110.534 27.2024 112.006Z" fill="#FFCF2D"/>
<path d="M49.1115 112.006C49.1115 113.478 48.0038 114.582 46.5267 114.582C45.0497 114.582 43.9419 113.478 43.9419 112.006C43.9419 110.534 45.0497 109.43 46.5267 109.43C48.0038 109.43 49.1115 110.534 49.1115 112.006Z" fill="#FFCF2D"/>
<path d="M71.1438 112.006C71.1438 113.478 70.036 114.582 68.5589 114.582C67.0819 114.582 65.9741 113.478 65.9741 112.006C65.9741 110.534 67.0819 109.43 68.5589 109.43C70.036 109.43 71.1438 110.534 71.1438 112.006Z" fill="#FFCF2D"/>
<path d="M93.1765 112.006C93.1765 113.478 92.0687 114.582 90.5917 114.582C89.1146 114.582 88.0068 113.478 88.0068 112.006C88.0068 110.534 89.1146 109.43 90.5917 109.43C91.9456 109.43 93.1765 110.534 93.1765 112.006Z" fill="#FFCF2D"/>
<path d="M115.209 112.006C115.209 113.478 114.101 114.582 112.624 114.582C111.147 114.582 110.04 113.478 110.04 112.006C110.04 110.534 111.147 109.43 112.624 109.43C114.101 109.43 115.209 110.534 115.209 112.006Z" fill="#FFCF2D"/>
<path d="M137.118 112.006C137.118 113.478 136.011 114.582 134.534 114.582C133.057 114.582 131.949 113.478 131.949 112.006C131.949 110.534 133.057 109.43 134.534 109.43C136.011 109.43 137.118 110.534 137.118 112.006Z" fill="#FFCF2D"/>
<path d="M159.151 112.006C159.151 113.478 158.043 114.582 156.566 114.582C155.089 114.582 153.981 113.478 153.981 112.006C153.981 110.534 155.089 109.43 156.566 109.43C158.043 109.43 159.151 110.534 159.151 112.006Z" fill="#FFCF2D"/>
<path d="M181.184 112.006C181.184 113.478 180.076 114.582 178.599 114.582C177.122 114.582 176.014 113.478 176.014 112.006C176.014 110.534 177.122 109.43 178.599 109.43C179.953 109.43 181.184 110.534 181.184 112.006Z" fill="#FFCF2D"/>
<path d="M5.16964 130.162C5.16964 131.634 4.06186 132.738 2.58482 132.738C1.10778 132.738 0 131.634 0 130.162C0 128.69 1.10778 127.586 2.58482 127.586C4.06186 127.586 5.16964 128.813 5.16964 130.162Z" fill="#FFCF2D"/>
<path d="M27.2024 130.162C27.2024 131.634 26.0946 132.738 24.6175 132.738C23.1405 132.738 22.0327 131.634 22.0327 130.162C22.0327 128.69 23.1405 127.586 24.6175 127.586C25.9715 127.586 27.2024 128.813 27.2024 130.162Z" fill="#FFCF2D"/>
<path d="M49.1115 130.162C49.1115 131.634 48.0038 132.738 46.5267 132.738C45.0497 132.738 43.9419 131.634 43.9419 130.162C43.9419 128.69 45.0497 127.586 46.5267 127.586C48.0038 127.586 49.1115 128.813 49.1115 130.162Z" fill="#FFCF2D"/>
<path d="M71.1438 130.162C71.1438 131.634 70.036 132.738 68.5589 132.738C67.0819 132.738 65.9741 131.634 65.9741 130.162C65.9741 128.69 67.0819 127.586 68.5589 127.586C70.036 127.586 71.1438 128.813 71.1438 130.162Z" fill="#FFCF2D"/>
<path d="M93.1765 130.162C93.1765 131.634 92.0687 132.738 90.5917 132.738C89.1146 132.738 88.0068 131.634 88.0068 130.162C88.0068 128.69 89.1146 127.586 90.5917 127.586C91.9456 127.586 93.1765 128.813 93.1765 130.162Z" fill="#FFCF2D"/>
<path d="M115.209 130.162C115.209 131.634 114.101 132.738 112.624 132.738C111.147 132.738 110.04 131.634 110.04 130.162C110.04 128.69 111.147 127.586 112.624 127.586C114.101 127.586 115.209 128.813 115.209 130.162Z" fill="#FFCF2D"/>
<path d="M137.118 130.162C137.118 131.634 136.011 132.738 134.534 132.738C133.057 132.738 131.949 131.634 131.949 130.162C131.949 128.69 133.057 127.586 134.534 127.586C136.011 127.586 137.118 128.813 137.118 130.162Z" fill="#FFCF2D"/>
<path d="M159.151 130.162C159.151 131.634 158.043 132.738 156.566 132.738C155.089 132.738 153.981 131.634 153.981 130.162C153.981 128.69 155.089 127.586 156.566 127.586C158.043 127.586 159.151 128.813 159.151 130.162Z" fill="#FFCF2D"/>
<path d="M181.184 130.162C181.184 131.634 180.076 132.738 178.599 132.738C177.122 132.738 176.014 131.634 176.014 130.162C176.014 128.69 177.122 127.586 178.599 127.586C179.953 127.586 181.184 128.813 181.184 130.162Z" fill="#FFCF2D"/>
</svg>
